<svg width="25" height="36" viewBox="0 0 25 36" fill="none" xmlns="http://www.w3.org/2000/svg">
<path d="M8.19682 25.831L3.57374 25.7294C2.79726 25.7124 2.14012 26.2994 2.06981 27.0728C2.02607 27.554 2.22031 28.0261 2.58997 28.3371L9.17857 33.8812C9.69766 34.318 10.3543 34.5575 11.0327 34.5575H18.9074C20.1932 34.5575 21.3232 33.7052 21.6764 32.4689L23.4693 26.1939C23.7903 25.0702 23.4005 23.8639 22.4825 23.1407L17.9417 19.5631C17.6999 19.3725 17.4221 19.2326 17.1251 19.1516C16.1264 18.8792 15.4336 17.9722 15.4336 16.937V11.6132C15.4336 10.5219 14.5489 9.63717 13.4576 9.63717C12.3893 9.63717 11.5144 10.4862 11.4824 11.5541L11.1386 23.0381C11.0913 24.6189 9.77796 25.8658 8.19682 25.831Z" fill="#535353"/>
<path d="M8.0354 15.9646L7.00593 14.7445C5.97601 13.5238 5.42999 11.9676 5.47146 10.3711L5.49715 9.38197C5.56282 6.85342 6.84462 4.51007 8.93721 3.08918V3.08918C11.6667 1.23579 15.267 1.28692 17.9408 3.21981V3.21981C20.1879 4.84424 21.4104 7.53444 21.1561 10.2955L21.0487 11.4616C20.9414 12.6256 20.5269 13.7402 19.8476 14.6913L18.9381 15.9646M2.58997 28.3371L9.17857 33.8812C9.69766 34.318 10.3543 34.5575 11.0327 34.5575H18.9074C20.1932 34.5575 21.3232 33.7052 21.6764 32.4689L23.4693 26.1939C23.7903 25.0702 23.4005 23.8639 22.4825 23.1407L17.9417 19.5631C17.6999 19.3725 17.4221 19.2326 17.1251 19.1516V19.1516C16.1264 18.8792 15.4336 17.9722 15.4336 16.937V11.6132C15.4336 10.5219 14.5489 9.63717 13.4576 9.63717V9.63717C12.3893 9.63717 11.5144 10.4862 11.4824 11.5541L11.1386 23.0381C11.0913 24.6189 9.77796 25.8658 8.19682 25.831L3.57374 25.7294C2.79726 25.7124 2.14012 26.2994 2.06981 27.0728V27.0728C2.02607 27.554 2.22031 28.0261 2.58997 28.3371Z" stroke="#535353" stroke-width="2.59181" stroke-linecap="round"/>
<path d="M14.3831 31.1017H17.8389" stroke="white" stroke-width="2.59181" stroke-linecap="round"/>
</svg>
