<svg width="22" height="22" viewBox="0 0 22 22" fill="none" xmlns="http://www.w3.org/2000/svg">
<g clip-path="url(#clip0_6_195)">
<path d="M19.1756 9.13117C19.1756 15.523 10.9575 21.0017 10.9575 21.0017C10.9575 21.0017 2.73938 15.523 2.73938 9.13117C2.73938 6.9516 3.60521 4.8613 5.1464 3.32011C6.68759 1.77892 8.77789 0.913086 10.9575 0.913086C13.137 0.913086 15.2273 1.77892 16.7685 3.32011C18.3097 4.8613 19.1756 6.9516 19.1756 9.13117Z" stroke="black" stroke-width="1.82624" stroke-linecap="round" stroke-linejoin="round"/>
<path d="M10.9575 11.8706C12.4704 11.8706 13.6969 10.6441 13.6969 9.13121C13.6969 7.6183 12.4704 6.39185 10.9575 6.39185C9.44459 6.39185 8.21814 7.6183 8.21814 9.13121C8.21814 10.6441 9.44459 11.8706 10.9575 11.8706Z" stroke="black" stroke-width="1.82624" stroke-linecap="round" stroke-linejoin="round"/>
</g>
<defs>
<clipPath id="clip0_6_195">
<rect width="21.9149" height="21.9149" fill="white"/>
</clipPath>
</defs>
</svg>
